<svg xmlns="http://www.w3.org/2000/svg" version="1.1" xmlns:xlink="http://www.w3.org/1999/xlink" xmlns:svgjs="http://svgjs.com/svgjs" width="1440" height="980" preserveAspectRatio="none" viewBox="0 0 1440 980"><g mask="url(&quot;#SvgjsMask1197&quot;)" fill="none"><rect width="1440" height="980" x="0" y="0" fill="url(#SvgjsLinearGradient1198)"></rect><path d="M1440 0L1389.26 0L1440 382.18z" fill="rgba(255, 255, 255, .1)"></path><path d="M1389.26 0L1440 382.18L1440 401.32L1017.9 0z" fill="rgba(255, 255, 255, .075)"></path><path d="M1017.9 0L1440 401.32L1440 696.39L433.61 0z" fill="rgba(255, 255, 255, .05)"></path><path d="M433.61 0L1440 696.39L1440 829.5799999999999L356.03000000000003 0z" fill="rgba(255, 255, 255, .025)"></path><path d="M0 980L158.96 980L0 892.77z" fill="rgba(0, 0, 0, .1)"></path><path d="M0 892.77L158.96 980L519.25 980L0 487.9z" fill="rgba(0, 0, 0, .075)"></path><path d="M0 487.9L519.25 980L603.66 980L0 412.21z" fill="rgba(0, 0, 0, .05)"></path><path d="M0 412.21000000000004L603.66 980L848.3499999999999 980L0 302.76000000000005z" fill="rgba(0, 0, 0, .025)"></path></g><defs><mask id="SvgjsMask1197"><rect width="1440" height="980" fill="#ffffff"></rect></mask><linearGradient x1="7.99%" y1="-11.73%" x2="92.01%" y2="111.73%" gradientUnits="userSpaceOnUse" id="SvgjsLinearGradient1198"><stop stop-color="rgba(37, 41, 61, 1)" offset="0.37"></stop><stop stop-color="rgba(0, 0, 0, 1)" offset="1"></stop></linearGradient></defs></svg>